<?xml version="1.0" encoding="UTF-8"?>
<svg id="Camada_1" data-name="Camada 1" xmlns="http://www.w3.org/2000/svg" viewBox="0 0 490.48 677.28">
  <g>
    <path d="M141.94,6.13c18.27-3.6,36.71-2.85,55.15-2.16,15.39,4.9,29.61,11.79,40.43,24.27,3.31,3.82,7.3,4.07,11.91,3.6,51.59-5.36,69.4,20.36,83.28,55.09,4.58,11.46,8.05,23.36,12.14,35.03,5.65,16.11,14.13,29.46,32.32,33.64,3.36,.77,6.42,2.88,9.61,4.38,11.76,3.85,17.18,14.06,23.51,23.4,1.94,3.18,2.92,6.62,2.91,10.34,0,4.12-1.33,7.88-3.74,11.11-10.68,14.3-21.64,28.31-34.37,40.93-12.57,12.46-26.04,13.78-41.03,5.26-9.3-5-16.57-12.41-22.83-20.66-4.91-6.46-10.57-11.84-17.29-16.21-27.29-21.26-48.62-46.74-58.85-80.66-3.97-13.17-5.1-12.94-15.14-3.13-27.66,27.03-57.92,50.05-96.2,59.78-9.23,2.35-7.62,8.57-7.48,14.81-2.64,7.8,7.55,5.81,8.36,10.97-4.32,13.18,1.64,25.06,5.13,37.09,2.54,8.76,5.64,17.42,9.27,25.84,2.69,5.76,4.25,12,7.51,17.51,5.06,9.47,10.17,18.96,16.81,27.42,18.23,23.24,42.09,28.69,68.87,16,3.95-1.87,7.84-3.87,11.57-6.16q15.78-9.22,27.57,5.28c1.99,2.44,4.3,4.61,6.16,7.16,2.8,5.61,9.3,9.03,9.65,16.12-2.04,7.42-8.84,9.85-14.32,13.66-14.11,9.82-30.89,15.02-44.46,25.83-5.97,4.75-11.59,9.79-16.16,15.93-20.58,27.69-18.97,54.03,5.27,78.56,7.03,7.11,12.99,15.15,20.31,21.98,2.68,2.5,6.25,5.59,.65,8.98-27.52-.23-54.82,4.59-82.43,3.33-16.79-.76-33.46-1.88-49.78-5.99-36.5-9.21-52.88-29.71-53.4-67.51-.22-16.37,.06-32.78,1.13-49.11,1.33-20.37-5.21-37.43-18.24-52.78-13.45-15.85-25.86-32.48-30.31-53.52,.02-20.03,.04-40.06,.06-60.09,3.69-19.11,11.89-36.35,23.33-51.79,13.82-18.66,19.92-38.51,19.43-62.21-1.06-50.43,22.12-87.76,67.17-110.79,8.43-4.31,17.66-7.03,26.53-10.49Z" style="fill: #292f36;"/>
    <path d="M333.82,248.6c16.81,9.4,30.91,5.69,42.86-8.8,12.21-14.81,27.44-27.36,34.4-46.11,2.4-3.85,4.8-7.7,8.55-10.45,4.27-1.82,8.78-7.87,12.49,.66,0,111.13,0,222.27,0,333.4-1.26,6.77-6.93,5.17-11.21,5.67-18.74,2.18-26.19,9.79-26.31,28.52-.1,15.02-1.4,30.08,4.26,44.78,4.23,10.98,10.62,18.32,22.45,20.51,4.18,.78,8.85,1.23,10.82,6.14-.01,14.75,.06,29.51-.11,44.26-.04,2.99,1.7,7.03-1.48,8.79-3.28,1.82-5.73-1.75-8.18-3.55-34.7-25.31-68.7-51.52-101.99-78.65-22.81-18.59-46.1-36.63-67.04-57.38-4.38-4.34-10.14-5.84-14.85-9.31-1.99-10.38-11.56-14.86-17.51-22.1-8.83-10.75-19.55-20.11-23.53-34.08-6.95-24.38,4.06-51.78,27.17-70.41,13.52-10.9,30.01-16.39,44.28-25.82,5.93-3.92,12.79-6.67,16.73-13.13,2.68-1.84,5.37-.53,8.05-.02,40.44,7.68,68.44-15.02,72.6-57.23,.78-7.93,.46-15.98,.05-23.95-.75-14.69-5.07-19.28-19.84-21.6-3.58-.56-7.06-1.29-10.11-3.4-2.06-1.79-3.65-3.76-2.54-6.74Z" style="fill: #e38f84;"/>
    <path d="M432.11,183.9c-5.32-5.92-8.2,.97-12.13,2.32-3.11-5.86-7.21-6.74-12.34-2.45-5.89-8.87-13.06-16.62-20.86-23.8,5.39-4.67,1.54-9.98,.58-14.74-2.75-13.72-4.7-27.23-1.03-41.2,4.77-18.17,9.86-23.45,28.11-25.43,15.21-1.65,29.96,2.25,44.58,5.59,4.36,1,11.78,4.7,8.18,10.61-4.71,7.72-1.51,9.54,4.51,12.64,7.82,4.03,10.53,9.66,2.27,16.44-1.77,1.45-3.18,3.35-5.07,5.37,6.58,4.28,18.14,2.17,17.58,12.89-.35,6.7-6.37,10.61-13.72,10.59-2.01,1.75-6.53,.5-6.63,3.82-.17,5.55,6.18,5.1,8.99,8.08,3.5,1.88,5.84,4.6,3.89,8.59-1.84,3.76-5.26,5.72-9.64,5.73-8.28,.02-16.57,.33-24.84,.07-5.01-.16-9.37,.47-12.42,4.89Z" style="fill: #fcc7b5;"/>
    <path d="M432.13,622.92c-1.47-.61-2.88-1.47-4.41-1.79-25.09-5.28-35.52-17.46-36.4-43.14-.34-9.95-.33-19.93-.04-29.88,.52-17.69,10.85-27.78,28.42-28.46,4.21-.16,8.86,1.45,12.42-2.36,8.89,3.74,18.86,2.08,27.72,5.33,5.95,2.18,15.58,.43,15.13,11.43-3.21,3.23-8.75,3.48-11.02,9.02,4.51,2.73,10.18,2.32,14.61,5.05,4.14,2.45,11.79,1.96,11.44,8.14-.38,6.77-7.42,8.4-13.24,9.8-3.4,.81-7.13,.22-10.07,2.49,1.8,5.24,7.43,3.93,10.76,6.44,8.91,6.73,4.79,11.81-2.07,16.59-4.63,3.22-11.08,1.67-15.36,5.84,.16,.77,.07,1.7,.49,2.2,3.72,4.48,9.82,8.36,6.96,15.21-3.11,7.46-10.62,5.29-16.71,5.77-6.25,.49-12.77-1.25-18.63,2.33Z" style="fill: #fcc7b5;"/>
    <path d="M113.64,204.97c-3.76-11.58,1.13-15.76,12.49-18.68,37.74-9.68,66.97-33.6,94.4-59.94,11.03-10.59,12.08-11.11,15.98,3.04,9.66,35.08,32.42,60.36,58.93,83.22,17.53,10.57,16.89,25.68,11.05,42.53-8.18,23.59-19.39,45.25-36.91,63.4-7.06,7.32-17.72,9.08-24.32,16.84-29.86,22.38-62.68,18.39-85.05-10.68-6.53-8.48-12.6-17.4-15.9-27.81-5.2-9.31-3.47-13.92,8.16-14.19,5.67-.13,11.68-2.49,14.59-8.56,.78-1.62-.05-3.36-1.63-3.92-6.33-2.24-11.33,1.36-16.52,4.09-3.94,2.07-6.26,7.58-12.05,5.78-7.84-15.95-11.8-33.22-17.1-50.04-1.87-5.94,3.44-9.35,3.61-14.37,7.4-8.47,16.86-8.84,27.01-7.48-6.75-5.12-13.98-5.92-21.75-1.94-.91,.65-1.85,1.25-2.78,1.87-5.24,3.54-10.32,6.36-12.2-3.15Z" style="fill: #fcc7b5;"/>
    <path d="M336.15,253.53c4.27,.87,8.7,2.94,12.77,2.38,12.85-1.77,18.44,6.54,19.74,16.18,3.19,23.55,2.63,47.15-10.61,68.28-14.85,23.7-46.84,32.86-72.44,21.17-3.23-4.66-6.46-9.32-9.68-13.99-10.63-16.22-10.26-15.71,6.35-27.74,20.41-14.79,33.88-35.69,46.95-56.76,2.07-3.34,3.15-7.42,6.92-9.53Z" style="fill: #fcc7b5;"/>
    <path d="M336.15,253.53c-14.06,29.94-31.51,57.2-61.45,73.65-6.9,3.79-7.97,6.69-2.59,12.1,2.27,2.28,4.56,4.59,3.82,8.28-1.9-1.92-4.28-3.56-5.61-5.82-6.31-10.66-13.61-16.48-25.07-6.36,.82-3.38,3.33-5.36,6.05-7.06,32.39-20.13,45.85-52.32,55.83-86.97,3.8-13.21-5.61-20.08-11.7-28.74,10.05,4.06,15.21,13.19,21.95,20.79,4.93,5.56,10.92,10.17,16.44,15.21,.78,1.64,1.55,3.28,2.33,4.92Z" style="fill: #eeae9e;"/>
    <path d="M136.84,280.08c7.2-5.35,13.49-11.99,22.91-13.95,5.42-1.13,9.71-.16,12.04,4.66,2.34,4.84-2.42,7.19-5.26,9.32-6.72,5.06-14.51,7.4-23.28,6.37,.36,3.63,.7,7.02,1.03,10.41-4.53-4.69-5.89-10.79-7.45-16.81Z" style="fill: #fbadaa;"/>
    <path d="M113.64,204.97c3.36,9.01,7.73,3.02,11.84,.79l.58,.41-.43-.54c9.93-9.64,20.02-4.84,30.09-.31,2.07,.93,2.96,2.63,2.43,4.77-.74,2.98-3.43,3.75-5.55,2.64-10.5-5.5-19.75-.33-29.26,2.93-9.41,2.06-11.98-2.12-9.71-10.7Z" style="fill: #4c484b;"/>
    <path d="M388.52,511.76c-2.27,5.04-5.25,2.73-8.3,.51-8.98-6.53-17.84-13.25-27.02-19.49-28.59-19.42-56.35-40.07-85.81-58.23-3.88-2.39-12.65-4.87-9.26-10.16,3.55-5.53,9.72,1.08,13.7,3.8,37.07,25.27,73.9,50.9,110.84,76.37,2.62,1.81,5.75,3.01,5.84,7.21Z" style="fill: #f8a5a4;"/>
    <path d="M223.51,311.01c-4.13,8.19-10.86,11.12-19.67,9.63-9.64-1.63-14.77-8.76-19.06-16.49-2.89-5.21,1.56-4.78,4.63-5.02,7.41-.59,15.13,1.59,22.15-2.48,3.12-1.73,6.96-2.06,9.54-4.86v-.02c9.62,5.31,2.65,12.7,2.41,19.25Z" style="fill: #e49186;"/>
    <path d="M239.82,258.08c-3.42-.94-8.61-.77-8.58-6.83,.03-5.39,14.71-14.48,22.89-14.42,5.47,.04,9.22,2.87,9.69,8.32,.44,5.1-14.25,12.98-24,12.93Z" style="fill: #fcadab;"/>
    <path d="M242.3,215.17c.13,6.67-1.13,11.8-7.32,11.45-8.36-.47-10.74-7.03-11.28-14.29-.4-5.4,1.87-10.57,7.35-10.21,7.96,.53,10.67,7.14,11.25,13.05Z" style="fill: #424145;"/>
    <path d="M162.93,237.39c-.7,4.94-.94,10.98-7.29,10.5-8.19-.62-10.54-7.73-11.2-14.62-.48-4.96,1.68-10.41,7.46-10.21,8.6,.31,9.89,7.67,11.04,14.32Z" style="fill: #403f44;"/>
    <path d="M182.8,263.03c2.84,3.61,7.25,4.58,11.05,6.56,2.28,1.18,6.09,1.08,4.92,5.12-1.03,3.55-4.45,2.55-7.06,2.67-11.4,.52-18.28-7-15.06-17.91,1.54-5.21-.87-11.32,3.72-15.68,5.17,5.86,.43,12.97,2.42,19.23Z" style="fill: #f1b3a2;"/>
    <path d="M209.39,187.01c-.74,1.64-1.49,3.29-2.23,4.93-2.74,1.84-4.23,6.21-8.62,4.69-2.92-1.01-2.87-3.24-1.44-5.61,1.3-1.7,2.59-3.4,3.89-5.11,3.03-2,5.15-5,7.99-7.21l-.14,.1c9.04-5.78,18.05-3.44,27.07,.06,2.91,1.85,5.82,3.71,8.73,5.56-1.01,5.22-4.09,2.68-6.73,1.8-.79-.12-1.59-.24-2.38-.36-8.96-5.38-17.67-4.84-26.14,1.14Z" style="fill: #4c484b;"/>
    <path d="M180.4,239.03c-.26-5.66,.65-10.97,5.7-17.35,3.02,14.54,1.04,26.83-3.29,38.98-2.14-6.04-1.58-12.15-.16-18.19,.56-2.35,.07-3.33-2.26-3.44Z" style="fill: #f1b4a3;"/>
    <path d="M223.51,311.01c-1.08-6.38,2.54-13.35-2.4-19.24,2.62-4.06,5.77-6.9,6.98,.42,1.1,6.61-.02,13.29-4.58,18.82Z" style="fill: #f1afa0;"/>
    <path d="M209.39,187.01c8.8-7.53,18.77-7.97,26.14-1.14-8.84-2.51-17.57-2.56-26.14,1.14Z" style="fill: #4c484b;"/>
    <path d="M180.4,239.03c2.19-1.36,6.29-5.82,4.34,1.56-1.77,6.72-1.96,13.32-1.93,20.07,0,.79,0,1.58-.01,2.37-4.82-5.9-1.32-12.86-2.42-19.23,0-1.59,.01-3.18,.02-4.77Z" style="fill: #eeaf9e;"/>
    <path d="M235.92,178.87c-9.02-.97-18.04-3.85-27.07-.06,9.04-6.98,18.06-5.54,27.07,.06Z" style="fill: #4c484b;"/>
    <path d="M208.99,178.71c-1.45,3.75-3.79,6.51-7.99,7.21,1.61-3.57,3.55-6.78,7.99-7.21Z" style="fill: #4c484b;"/>
    <path d="M237.91,186.23c2.23-.65,4.95,.52,6.73-1.8,2.07,.78,3.53,2.3,1.22,3.85-2.98,2-5.73,.35-7.95-2.05Z" style="fill: #706261;"/>
    <path d="M221.09,291.78c-1.77,4.4-5.44,5.05-9.54,4.86,2.4-3.15,5.75-4.43,9.54-4.86Z" style="fill: #f1afa0;"/>
  </g>
  <polygon points="404.46 179.25 412.19 191.83 419.63 183.24 415.37 176.65 404.32 178.97 404.46 179.25" style="fill: #fcc7b5;"/>
</svg>