<svg xmlns="http://www.w3.org/2000/svg" width="73.543" height="101.696" viewBox="0 0 73.543 101.696"><g transform="translate(0)"><g transform="translate(0 0)"><path d="M781.007,649.6a7.5,7.5,0,0,1-1.392-1.5,6.631,6.631,0,0,1,.34,2.012c-.179.456-1.644,1.307-1.644,1.307a6.855,6.855,0,0,1,1.935-.177c.454.179,1.383,1.481,1.383,1.481a5.667,5.667,0,0,1-.175-1.941,7.718,7.718,0,0,1,1.479-1.378A5.708,5.708,0,0,1,781.007,649.6Z" transform="translate(-770.432 -629.103)" fill="#fff"/><path d="M885.7,512.63a4.4,4.4,0,0,1-1.277.446c-.318-.067-1.037-.93-1.037-.93a4.545,4.545,0,0,1,.331,1.245,4.229,4.229,0,0,1-.815,1.068,3.758,3.758,0,0,1,1.249-.33,5.12,5.12,0,0,1,1.065.814,3.786,3.786,0,0,1-.343-1.237A4.97,4.97,0,0,1,885.7,512.63Z" transform="translate(-869.066 -500.894)" fill="#fff"/><path d="M1287.813,517.238a3.557,3.557,0,0,1-1.032.36c-.257-.054-.838-.752-.838-.752a3.677,3.677,0,0,1,.267,1.007,3.42,3.42,0,0,1-.659.864,3.038,3.038,0,0,1,1.01-.267,4.139,4.139,0,0,1,.861.658,3.059,3.059,0,0,1-.278-1A4.017,4.017,0,0,1,1287.813,517.238Z" transform="translate(-1248.781 -505.328)" fill="#fff"/><path d="M561.974,688.558a3.556,3.556,0,0,1-1.032.36c-.257-.054-.838-.752-.838-.752a3.674,3.674,0,0,1,.267,1.007,3.419,3.419,0,0,1-.659.864,3.035,3.035,0,0,1,1.01-.267,4.134,4.134,0,0,1,.861.658,3.059,3.059,0,0,1-.278-1A4.02,4.02,0,0,1,561.974,688.558Z" transform="translate(-531.029 -674.386)" fill="#fff"/><path d="M708.563,584.39a259.168,259.168,0,0,1-17.657-21.385C687.327,558.3,683.843,553,683.843,553c-1.387-2.109-1.768-2.792-4.316-6.671-2.281-3.472-2.54-3.782-3.139-4.9a32.7,32.7,0,0,1-2.943-8.044c-1.208-4.925-.523-5.95-1.569-9.809-.526-1.939-.865-1.674-3.335-7.455a31.222,31.222,0,0,1-1.772-4.765c-.746-2.866-1.163-4.465-.654-6.408.437-1.667,1.278-2.532.785-3.531a2.407,2.407,0,0,0-1.962-1.177c-1.169-.081-2.029.738-2.877,1.569a11.609,11.609,0,0,0-3.008,5.362,13.8,13.8,0,0,0-.392,4.185,30.643,30.643,0,0,0,.915,4.839c.349,1.506.523,2.259.654,2.746.593,2.209.973,3.011.654,3.269-.356.289-1.172-.43-2.485-1.046a12.051,12.051,0,0,0-4.97-1.046,14.728,14.728,0,0,0-6.67,1.439c-2.169.943-3.607,1.568-4.316,3.139a4.419,4.419,0,0,0-.262,3.531c.285.578.7.874.654,1.439-.056.621-.616.826-1.177,1.439-1.09,1.188-1.607,3.276-.915,4.447.47.8,1.312.852,1.308,1.439,0,.491-.593.593-1.177,1.308a4.213,4.213,0,0,0-.785,3.4c.239,1.1,2.153,1.661,2.387,2.812.2,1-1.515.711-1.6,2.027a5.926,5.926,0,0,0,.785,3.793,5.594,5.594,0,0,0,2.877,1.962c1.215.444,1.435.153,3.008.654a13.368,13.368,0,0,1,2.616,1.177,28.651,28.651,0,0,1,2.485,1.7,22.174,22.174,0,0,0,3.923,1.831,17.024,17.024,0,0,1,4.577,3.4c4.067,3.775,8.113,11.181,10.724,15.824,6.417,11.411,6.693,10.62,8.322,14.481h22.879q1.38-1.548,2.933-3.234C707.862,586.107,709.279,585.187,708.563,584.39Z" transform="translate(-640.004 -489.656)" fill="#f79c84"/><path d="M970.532,501.8a11.609,11.609,0,0,0-3.008,5.362,13.8,13.8,0,0,0-.392,4.185,30.657,30.657,0,0,0,.915,4.839c.349,1.506.523,2.259.654,2.746.593,2.209.973,3.011.654,3.269a.278.278,0,0,1-.058.035c1.605,1.541,2.248,1.785,2.5,1.613.574-.387-.785-2.9-2.392-9.228-.883-3.474-1.1-5.2-.684-7.177a13.211,13.211,0,0,1,1.709-4.1,6.075,6.075,0,0,1,2.051-2.392,4.545,4.545,0,0,1,1.612-.579,2.708,2.708,0,0,0-.687-.143C972.24,500.154,971.38,500.972,970.532,501.8Z" transform="translate(-948.477 -489.656)" fill="#ef8b73"/><path d="M679.988,1320.656c-6.455-8.316-15.324-7.861-12.039-16.025.741-1.842-7.513,5.524-13.211.224a5.893,5.893,0,0,0,.786,3.765,5.594,5.594,0,0,0,2.877,1.962c1.215.444,1.435.153,3.008.654a13.347,13.347,0,0,1,2.616,1.177,28.642,28.642,0,0,1,2.485,1.7,22.171,22.171,0,0,0,3.923,1.831,17.02,17.02,0,0,1,4.577,3.4c4.067,3.775,8.113,11.181,10.724,15.824,6.417,11.411,6.693,10.62,8.322,14.481h4.407c-3.345-5.609-5.924-10.209-7.94-13.956A173.015,173.015,0,0,0,679.988,1320.656Z" transform="translate(-653.871 -1247.953)" fill="#ef8b73"/><path d="M881.721,894.58a7.789,7.789,0,0,0-2.962-1.595c-.969-.39-1.1-.364-1.424-.627-1.129-.92-1.138-2.038-1.334-2.032-.272.009-.367,3.479.194,5.62.551,2.1,2.762,4.845,4.5,4.443,1.193-.276,2.08-2.026,1.994-3.532A3.88,3.88,0,0,0,881.721,894.58Z" transform="translate(-862.355 -857.534)" fill="#ef8b73"/><path d="M866.773,1125.661c-2.459-1.778-1.738-4.719-3.628-5.413-1.967-.723-5.354,1.506-5.337,3.413.022,2.36,5.26,4.581,9.629,4.537,2.859-.029,5.267-1.027,5.22-1.4C872.6,1126.366,869.248,1127.451,866.773,1125.661Z" transform="translate(-845.403 -1074.227)" fill="#ef8b73"/><path d="M658.4,942.9a10.068,10.068,0,0,0-3.019-.4c-.722-.024-1.4.251-1.758.181a4.445,4.445,0,0,1-1.831-.85c-.99-.7-5.194.1-9.3,3.12a1.369,1.369,0,0,1,.346.935c-.056.621-.616.826-1.177,1.439-1.09,1.188-1.607,3.276-.915,4.447.47.8,1.312.851,1.308,1.438,0,.491-.593.593-1.177,1.308a4.213,4.213,0,0,0-.785,3.4c.239,1.1,2.349,1.825,2.583,2.975.2,1-1.711.548-1.8,1.864a5.925,5.925,0,0,0,.785,3.793,5.593,5.593,0,0,0,2.877,1.962c1.215.444,1.435.153,3.008.654a12.4,12.4,0,0,1,2.032.858,7.1,7.1,0,0,0,2.741-1.9c.738-.852,1.909-2.2,1.9-3.727a2.345,2.345,0,0,1,.262-1.308c.353-.6.8-.579,1.373-1.046.589-.484.88-1.4,1.439-3.2a5.6,5.6,0,0,0,.175-1.552,16.139,16.139,0,0,0,1.453-2.876c.367-1.723.713-3.1.318-4.216a4.53,4.53,0,0,0-.51-.9.452.452,0,0,1,.129-.638,2.8,2.8,0,0,0,.794-.714c.719-1.077,1.067-3,.322-3.93A3.386,3.386,0,0,0,658.4,942.9Z" transform="translate(-640.004 -905.88)" fill="#e57a65"/><path d="M658.137,906.8a5.959,5.959,0,0,0-3.335-.262c-.705.091-.915.131-.915.131a28.294,28.294,0,0,0-2.681-2.485,6.663,6.663,0,0,0-2.746-1.112,7.821,7.821,0,0,0-3.6-.327,5.179,5.179,0,0,0-2.258,1.121c-.057.1-.111.207-.161.318a4.418,4.418,0,0,0-.262,3.531c.285.578.7.875.654,1.439-.056.621-.616.826-1.177,1.439-1.09,1.188-1.607,3.276-.915,4.447.47.8,1.312.852,1.308,1.439,0,.491-.593.593-1.177,1.308a4.213,4.213,0,0,0-.785,3.4,9.3,9.3,0,0,0,1.808,2.844,2.813,2.813,0,0,0-1.023,1.994,5.926,5.926,0,0,0,.785,3.793,5.594,5.594,0,0,0,2.877,1.962c1.208.441,1.433.157,2.98.645a5.248,5.248,0,0,0,2.775-.449,7.344,7.344,0,0,0,2.55-2.223c1.071-1.209.862-3.94.862-3.94a12.659,12.659,0,0,0,1.3-.441c.557-.267.768-.823,1.177-1.9a4.333,4.333,0,0,0,.458-2.289c-.089-.6-.131-1.373-.131-1.373s.444-.4.785-.654c.725-.534.923-1.38,1.242-2.746a4.679,4.679,0,0,0,.2-2.158c-.07-.353-.28-1.408-1.046-1.766-.306-.143-1.116.2-1.478.348a1.249,1.249,0,0,1-1.009-.206,9.7,9.7,0,0,1,1.737-.853,6.313,6.313,0,0,0,2.122-1.447,2.53,2.53,0,0,0,.458-2.354A2.439,2.439,0,0,0,658.137,906.8Z" transform="translate(-640.004 -869.149)" fill="#fba78d"/><g transform="translate(13.215 32.752)"><path d="M872.322,889.6a.17.17,0,0,0-.167.173c.006.409.005.821,0,1.229-.017.841-.066,1.692-.146,2.531a.17.17,0,0,0,.153.186h0a.171.171,0,0,0,.188-.154c.081-.848.13-1.707.148-2.556.009-.412.01-.829,0-1.241A.171.171,0,0,0,872.322,889.6Z" transform="translate(-872.005 -889.601)" fill="#d86a50"/></g><g transform="translate(2.808 39.788)"><path d="M701.851,1016.7a2.851,2.851,0,0,1-1.771.6h0a6.3,6.3,0,0,1-1.859-.441,20.047,20.047,0,0,1-2.187-.869c-.679-.308-.992-.475-1.324-.653s-.694-.371-1.453-.72c-.894-.411-1.639-.717-2.415-.992-.19-.068-.488-.2-.751-.316l-.315-.138a.342.342,0,0,0-.461.212h0a.342.342,0,0,0,.191.416l.309.135c.287.127.584.259.8.335.756.269,1.483.568,2.359.969.74.34,1.084.524,1.416.7s.665.355,1.364.672a20.676,20.676,0,0,0,2.259.9,6.672,6.672,0,0,0,2.065.474h.007a5.777,5.777,0,0,0,2.6-.942.342.342,0,0,0,.1-.486C702.679,1016.4,702.005,1016.6,701.851,1016.7Z" transform="translate(-689.295 -1013.139)" fill="#e57a65"/></g><g transform="translate(1.959 47.345)"><path d="M688.461,1149.024a5.857,5.857,0,0,1-2.934.961h0a9.783,9.783,0,0,1-2.376-.636c-3.572-1.18-3.87-1.282-4.556-1.562a23.023,23.023,0,0,1-2.676-1.257,9.9,9.9,0,0,1-.9-.6l-.091-.066a.342.342,0,0,0-.4.554l.09.065a10.386,10.386,0,0,0,.965.644,23.661,23.661,0,0,0,2.751,1.293c.705.287,1.006.391,4.6,1.577a9.837,9.837,0,0,0,2.591.671h0a6.478,6.478,0,0,0,3.306-1.071c.165-.107,1.437-.858,1.32-1.016l.19-.711A11.835,11.835,0,0,1,688.461,1149.024Z" transform="translate(-674.389 -1145.799)" fill="#e57a65"/></g><g transform="translate(1.886 54.603)"><path d="M684.977,1274.956c-1.859-.053-3.239-.129-3.906-.217-.815-.107-1.386-.21-2.252-.367-.511-.093-1.148-.208-1.986-.35-.73-.124-1.553-.338-2.28-.527-.386-.1-.737-.192-1.02-.255a.341.341,0,0,0-.411.283h0a.341.341,0,0,0,.264.384c.268.06.614.15,1,.249.74.192,1.579.411,2.338.54.834.142,1.469.257,1.978.349.844.153,1.454.263,2.285.372.864.113,3.059.183,4.461.223.189.005,1.023-.713,1.023-.713C686.471,1274.738,685.165,1274.961,684.977,1274.956Z" transform="translate(-673.118 -1273.231)" fill="#e57a65"/></g><path d="M977.895,1338.614c-.734-.358-3.626,8.509-9.741,9.4-2.4.349-4.285-.672-4.614,0-.429.877,2.146,3.927,4.956,3.931,2.609,0,4.421-2.621,6.152-5.127C977.3,1342.979,978.388,1338.855,977.895,1338.614Z" transform="translate(-945.066 -1280.277)" fill="#ef8b73"/><path d="M1134.53,1390.267c-1.728.3-1.426,3.289-5.3,8.727-2.7,3.794-4.233,5.941-7.139,7.123-1.46.593-4.076,1.272-4.041,2.2.015.4.5.583.832,1.474a3.852,3.852,0,0,1,.21,1.529c-.027,1.678,1.433,3.855,1.923,4.619.244.38,2.821,5.209,7.9,14.746h35.451C1149.325,1407.849,1136.858,1389.862,1134.53,1390.267Z" transform="translate(-1090.818 -1328.991)" fill="#ffa757"/><path d="M1074.562,1322.076c-1.206,1.2-2.526,6.055-8.195,12.011-4.39,4.613-7.417,6.206-8.48,7.561-.807,1.03,2.777,6.967,4.671,7.553,2.69.833,8.839-4.27,13.485-9.69,4.276-4.988,5.689-7.191,5.39-10.719C1081.252,1326.663,1075.849,1320.8,1074.562,1322.076Z" transform="translate(-1033.974 -1264.52)" fill="#ffe3d8"/><g transform="translate(26.369 60.55)"><g transform="translate(0 16.463)"><path d="M1104.663,1668.71c-.422-.638-.842-1.288-1.251-1.935a.251.251,0,0,0-.347-.079h0a.252.252,0,0,0-.08.348c.41.65.832,1.3,1.256,1.944.7,1.052,1.42,2.106,2.154,3.135a.253.253,0,0,0,.353.058h0a.251.251,0,0,0,.058-.351C1106.077,1670.806,1105.356,1669.758,1104.663,1668.71Z" transform="translate(-1102.947 -1666.657)" fill="#f4d2cb"/></g><g transform="translate(14.47)"><path d="M1359.646,1379.5a14.877,14.877,0,0,0-2.276-1.823.253.253,0,0,0-.35.079h0a.252.252,0,0,0,.078.346,14.316,14.316,0,0,1,4.668,4.979.252.252,0,0,0,.441-.245A14.868,14.868,0,0,0,1359.646,1379.5Z" transform="translate(-1356.981 -1377.634)" fill="#f4d2cb"/></g><g transform="translate(13.341 2.198)"><path d="M1339.533,1418.328a26.5,26.5,0,0,0-1.946-2.035.253.253,0,0,0-.358.014h0a.252.252,0,0,0,.014.355,25.836,25.836,0,0,1,4.2,5.1.252.252,0,0,0,.345.082h0a.253.253,0,0,0,.083-.349A26.455,26.455,0,0,0,1339.533,1418.328Z" transform="translate(-1337.162 -1416.226)" fill="#f4d2cb"/></g><g transform="translate(1.835 15.475)"><path d="M1136.952,1651.693a18.382,18.382,0,0,1-1.306-2.234.252.252,0,0,0-.334-.117h0a.252.252,0,0,0-.119.339,18.81,18.81,0,0,0,3.719,5.129.252.252,0,0,0,.359-.007h0a.252.252,0,0,0-.007-.355A18.385,18.385,0,0,1,1136.952,1651.693Z" transform="translate(-1135.167 -1649.317)" fill="#f4d2cb"/></g><g transform="translate(4.018 13.855)"><path d="M1175.474,1623.118c-.516-.7-1.026-1.412-1.519-2.127a.251.251,0,0,0-.349-.065h0a.253.253,0,0,0-.065.351c.5.719,1.01,1.437,1.529,2.14.581.786,1.183,1.572,1.794,2.339a.253.253,0,0,0,.355.039h0a.251.251,0,0,0,.039-.353C1176.65,1624.68,1176.051,1623.9,1175.474,1623.118Z" transform="translate(-1173.495 -1620.882)" fill="#f4d2cb"/></g><g transform="translate(5.677 12.204)"><path d="M1204.574,1593.765c-.508-.589-1.018-1.187-1.52-1.784a.251.251,0,0,0-.354-.031h0a.252.252,0,0,0-.031.355c.5.6,1.014,1.2,1.524,1.789.718.832,1.453,1.668,2.186,2.488a.252.252,0,0,0,.356.019h0a.252.252,0,0,0,.02-.355C1206.022,1595.429,1205.29,1594.6,1204.574,1593.765Z" transform="translate(-1202.609 -1591.892)" fill="#f4d2cb"/></g><g transform="translate(7.413 10.511)"><path d="M1234.9,1563.542a15.311,15.311,0,0,0-1.4-1.312.252.252,0,0,0-.357.038h0a.253.253,0,0,0,.038.353,14.78,14.78,0,0,1,3.552,4.3.252.252,0,0,0,.339.1h0a.252.252,0,0,0,.1-.344A15.379,15.379,0,0,0,1234.9,1563.542Z" transform="translate(-1233.091 -1562.173)" fill="#f4d2cb"/></g><g transform="translate(9.122 8.934)"><path d="M1265.039,1536.151c-.483-.55-.991-1.089-1.513-1.6a.253.253,0,0,0-.358,0h0a.252.252,0,0,0,0,.355c.514.506,1.013,1.036,1.488,1.577a30.15,30.15,0,0,1,2.022,2.573.252.252,0,0,0,.349.063h0a.253.253,0,0,0,.064-.353A30.722,30.722,0,0,0,1265.039,1536.151Z" transform="translate(-1263.096 -1534.476)" fill="#f4d2cb"/></g><g transform="translate(10.473 7.371)"><path d="M1288.785,1508.352a13.83,13.83,0,0,0-1.583-1.266.252.252,0,0,0-.352.071h0a.253.253,0,0,0,.07.348,13.256,13.256,0,0,1,3.7,3.838.253.253,0,0,0,.345.082h0a.252.252,0,0,0,.083-.349A13.838,13.838,0,0,0,1288.785,1508.352Z" transform="translate(-1286.809 -1507.043)" fill="#f4d2cb"/></g><g transform="translate(12.27 5.187)"><path d="M1319.954,1469.7c-.38-.333-.779-.654-1.189-.956a.252.252,0,0,0-.354.058h0a.253.253,0,0,0,.057.35c.4.293.784.6,1.152.927a17.252,17.252,0,0,1,2.466,2.68.252.252,0,0,0,.35.056h0a.253.253,0,0,0,.056-.354A17.763,17.763,0,0,0,1319.954,1469.7Z" transform="translate(-1318.365 -1468.693)" fill="#f4d2cb"/></g></g><g transform="translate(19.194 0)"><g transform="translate(6.355)"><path d="M1089.854,314.618h0a.443.443,0,0,0-.52.354l-.775,4.464a.448.448,0,0,0,.369.512h0a.443.443,0,0,0,.52-.354l.775-4.464A.448.448,0,0,0,1089.854,314.618Z" transform="translate(-1088.553 -314.611)" fill="#fff"/></g><g transform="translate(0 1.327)"><path d="M977.8,338.1a.46.46,0,0,0-.624-.135h0a.431.431,0,0,0-.13.607L979.6,342.4a.46.46,0,0,0,.624.135h0a.431.431,0,0,0,.13-.607Z" transform="translate(-976.977 -337.9)" fill="#fff"/></g><g transform="translate(8.873 4.649)"><path d="M1137.667,396.464a.46.46,0,0,0-.612-.182l-4.077,2.129a.431.431,0,0,0-.178.595h0a.461.461,0,0,0,.612.182l4.077-2.129a.431.431,0,0,0,.178-.595Z" transform="translate(-1132.744 -396.23)" fill="#fff"/></g></g></g></g></svg>